<svg xmlns="http://www.w3.org/2000/svg" viewBox="0 0 100 100"><rect width="100" height="100" fill="#26282e"/><g transform="rotate(15 34 70)"><circle cx="0.5" cy="23.9" r="11" fill="#5a1e2c"/><circle cx="47.8" cy="14.7" r="11" fill="#5a1e2c"/><circle cx="-0.5" cy="22.4" r="5" fill="#7a3846"/><circle cx="48.3" cy="13.2" r="5" fill="#7a3846"/><circle cx="34" cy="70" r="52" fill="#3b121b"/><circle cx="34" cy="70" r="46" fill="#f4eee6"/><path d="M-20 70 A54 54 0 0 1 81 44 Q80 52 71 51 Q66 42 58 50 Q51 41 44 49 Q37 41 30 48 Q23 41 15 50 Q6 76 10 104 L-20 104 Z" fill="#5a1e2c"/><circle cx="22" cy="30" r="3.6" fill="none" stroke="#471622" stroke-width="2.2" stroke-dasharray="15 8" transform="rotate(20 22 30)"/><circle cx="44" cy="24" r="3.6" fill="none" stroke="#471622" stroke-width="2.2" stroke-dasharray="15 8" transform="rotate(140 44 24)"/><circle cx="8" cy="44" r="3.6" fill="none" stroke="#471622" stroke-width="2.2" stroke-dasharray="15 8" transform="rotate(260 8 44)"/><ellipse cx="29" cy="90" rx="7.5" ry="4.2" fill="#e3a3a3" opacity="0.45"/><ellipse cx="68" cy="89" rx="7" ry="4.2" fill="#e3a3a3" opacity="0.45"/><rect x="41" y="59" width="8" height="24" rx="4" fill="#121114"/><rect x="59" y="59" width="8" height="24" rx="4" fill="#121114"/></g></svg>
